<?xml version="1.0" standalone="no"?>
<!DOCTYPE svg PUBLIC "-//W3C//DTD SVG 20010904//EN"
 "http://www.w3.org/TR/2001/REC-SVG-20010904/DTD/svg10.dtd">
<svg version="1.0" xmlns="http://www.w3.org/2000/svg"
 width="1280.000000pt" height="640.000000pt" viewBox="0 0 1280.000000 640.000000"
 preserveAspectRatio="xMidYMid meet">
<metadata>
Created by potrace 1.15, written by Peter Selinger 2001-2017
</metadata>
<g transform="translate(0.000000,640.000000) scale(0.100000,-0.100000)"
fill="pink" stroke="none">
<path d="M9371 6316 c-6 -7 -51 -126 -100 -265 -49 -139 -93 -257 -98 -261 -4
-5 -64 5 -133 21 -169 39 -429 77 -633 91 -184 12 -425 2 -638 -27 -212 -30
-514 -113 -719 -200 -147 -62 -371 -183 -513 -279 -316 -210 -540 -416 -802
-736 -270 -330 -539 -629 -553 -615 -3 3 -9 89 -13 191 -4 113 -11 190 -17
196 -12 12 -41 9 -654 -81 -180 -26 -330 -50 -334 -54 -3 -3 -1 -171 6 -374 7
-202 15 -467 19 -587 l6 -219 -56 -47 c-92 -77 -304 -228 -451 -322 -567 -362
-1063 -553 -1529 -588 -510 -38 -933 88 -1344 398 -136 103 -426 407 -544 570
-48 65 -81 90 -81 61 0 -39 246 -334 406 -488 318 -305 645 -485 1005 -551
155 -28 159 -29 159 -38 0 -5 -16 -16 -35 -25 -41 -19 -66 -55 -74 -105 -6
-33 -10 -37 -39 -40 -102 -10 -482 143 -669 269 -235 159 -504 440 -690 721
-66 100 -89 126 -100 114 -16 -16 129 -233 282 -421 142 -175 404 -407 558
-494 183 -103 397 -189 559 -225 42 -9 78 -22 81 -29 9 -26 -16 -189 -29 -194
-20 -7 -141 23 -267 68 -445 157 -833 507 -1127 1015 -84 145 -121 189 -106
128 15 -64 230 -404 346 -548 129 -160 331 -342 503 -453 149 -97 408 -206
580 -244 31 -7 62 -18 67 -24 7 -9 7 -44 -1 -109 -12 -96 -12 -96 -40 -96 -57
0 -369 106 -369 125 0 4 9 18 20 32 27 34 25 66 -4 100 -23 27 -27 28 -118 27
-51 0 -111 -4 -133 -8 -38 -7 -44 -4 -110 46 -283 215 -559 576 -731 956 -20
45 -41 82 -46 82 -26 0 -11 -45 69 -207 182 -364 390 -630 661 -844 88 -70 94
-77 82 -98 -4 -9 -13 -49 -20 -88 -7 -46 -17 -73 -24 -73 -17 0 -144 110 -227
196 -219 227 -395 510 -530 849 -45 112 -57 131 -73 115 -5 -5 13 -64 45 -142
173 -431 392 -749 688 -998 l110 -93 -5 -41 c-2 -23 -18 -185 -34 -361 -23
-248 -27 -321 -17 -327 13 -9 742 -6 750 2 2 3 14 93 26 200 12 107 26 199 31
204 5 5 67 2 152 -8 333 -38 679 -13 1106 80 90 20 166 33 170 30 6 -7 90
-492 91 -528 1 -28 -38 -22 -117 18 -75 37 -129 89 -157 153 -32 72 -41 85
-82 132 -24 26 -61 54 -84 63 -46 19 -68 13 -46 -12 23 -27 47 -79 77 -168 68
-206 183 -296 405 -319 107 -11 105 -28 46 326 -54 323 -59 368 -38 373 142
38 467 156 757 276 149 61 576 271 745 366 361 202 812 488 1090 692 250 184
277 202 406 273 405 221 802 354 1209 404 143 17 443 20 605 5 589 -55 1167
-285 1782 -711 578 -400 1205 -1050 1748 -1811 115 -160 309 -454 371 -560 35
-60 66 -89 81 -75 13 14 -326 529 -525 797 -302 407 -510 649 -846 986 -399
399 -768 695 -1141 914 -138 81 -427 223 -566 278 -244 97 -465 159 -707 199
-153 25 -190 27 -442 27 -364 1 -552 -25 -874 -119 -375 -110 -718 -283 -1091
-550 -588 -421 -1079 -712 -1695 -1005 -303 -144 -906 -368 -929 -345 -11 11
-41 173 -41 221 0 30 1 31 138 79 338 119 857 368 1233 593 442 264 973 642
1343 956 65 56 158 131 206 167 91 69 319 209 339 209 14 0 14 -45 0 -239 -10
-129 -10 -155 2 -162 19 -12 56 -11 64 1 3 5 13 101 21 212 8 112 17 213 19
225 4 17 29 35 93 67 365 183 836 295 1237 296 440 0 817 -74 1255 -247 130
-52 462 -215 596 -294 687 -404 1361 -1017 2010 -1829 159 -198 313 -409 483
-662 51 -76 71 -94 71 -62 0 42 -354 537 -599 839 -362 445 -814 906 -1196
1218 -254 208 -587 441 -803 561 -67 38 -125 72 -128 77 -3 5 45 9 106 9 129
0 207 17 293 62 75 41 118 90 163 188 20 44 41 80 46 80 30 0 228 -133 452
-304 65 -50 131 -100 145 -111 14 -10 82 -66 151 -124 475 -399 1022 -973
1390 -1458 53 -70 88 -109 94 -103 15 15 -4 46 -124 201 -216 276 -415 502
-690 783 -446 454 -842 789 -1297 1094 -50 34 -94 66 -98 72 -7 11 229 546
250 569 12 12 28 5 107 -44 102 -63 290 -195 493 -345 144 -107 425 -337 425
-349 0 -4 -28 -13 -62 -20 -129 -26 -254 -106 -292 -185 -10 -21 -16 -61 -16
-103 0 -59 4 -76 28 -114 41 -64 105 -117 186 -154 114 -53 148 -59 306 -59
167 1 215 14 326 90 35 24 66 44 68 44 5 0 315 -327 424 -448 74 -81 102 -101
102 -72 0 12 -200 237 -359 403 -89 93 -141 155 -141 168 0 12 34 98 77 193
42 94 97 218 123 276 66 148 83 180 92 180 4 0 77 -67 162 -150 84 -82 156
-150 160 -150 28 0 -16 56 -149 190 -85 86 -155 161 -155 167 0 6 18 51 41
100 22 48 123 273 224 498 101 226 210 469 244 540 62 134 68 150 52 160 -9 5
-1003 342 -1645 557 -147 49 -272 86 -276 81 -5 -4 -27 -53 -50 -108 -96 -228
-243 -551 -260 -569 -17 -18 -20 -17 -106 31 -318 179 -763 374 -1069 469 -49
15 -93 32 -97 37 -8 13 1 42 96 308 42 118 76 220 76 226 0 5 -18 17 -40 26
-30 12 -41 12 -49 3z m-984 -456 c202 -10 390 -35 583 -76 154 -33 180 -42
180 -63 0 -16 -57 -183 -161 -468 -23 -62 -46 -117 -53 -122 -8 -7 -47 -2
-121 15 -410 93 -803 109 -1205 48 -117 -17 -311 -62 -409 -94 -62 -20 -67
-20 -115 -3 -63 20 -218 23 -296 4 -113 -28 -277 -133 -295 -191 -3 -10 -19
-23 -34 -28 -26 -9 -29 -15 -33 -71 -5 -70 -16 -85 -103 -144 -165 -111 -328
-248 -475 -401 -318 -329 -639 -650 -645 -644 -4 3 -11 81 -16 173 l-10 167
68 74 c220 242 332 371 485 559 286 351 516 565 828 772 422 279 834 429 1337
487 148 17 247 18 490 6z m1038 -201 c327 -104 1059 -439 1099 -502 7 -11 -16
-73 -88 -234 -54 -120 -112 -250 -129 -290 -17 -40 -36 -74 -43 -77 -6 -2 -81
34 -165 81 -295 165 -616 308 -899 402 -165 55 -158 49 -138 108 57 171 191
539 199 550 6 6 16 10 22 8 7 -2 71 -23 142 -46z m2035 -173 c1012 -341 1092
-369 1097 -382 5 -13 -21 -72 -264 -614 -198 -439 -189 -423 -211 -411 -9 5
-75 60 -146 121 -344 298 -757 604 -1131 840 -171 107 -167 103 -150 148 37
104 218 492 229 492 1 0 260 -87 576 -194z m-3140 -307 c264 -20 600 -83 600
-112 0 -21 -101 -291 -113 -304 -9 -9 -24 -5 -65 21 -29 19 -83 44 -121 56
-62 19 -85 21 -213 18 -166 -5 -227 -23 -304 -91 -57 -50 -74 -84 -74 -145 l0
-50 -167 -6 c-472 -18 -874 -121 -1297 -333 -48 -24 -91 -42 -94 -39 -3 3 0
75 6 159 7 83 15 195 18 249 4 53 9 101 13 106 4 7 30 -1 71 -21 57 -29 75
-32 171 -35 174 -6 302 35 405 130 83 76 102 160 53 229 -10 15 -19 32 -19 37
0 19 175 67 372 102 256 46 443 53 758 29z m2343 -96 c80 -41 454 -289 652
-433 200 -145 608 -477 718 -584 20 -20 37 -45 37 -55 0 -10 -43 -113 -95
-229 -52 -117 -95 -217 -95 -222 0 -23 -26 -19 -74 13 -28 19 -71 44 -94 56
-54 28 -184 61 -239 61 -35 0 -51 8 -106 53 -223 182 -326 264 -432 343 -178
133 -378 275 -480 339 -49 31 -93 62 -97 70 -5 8 22 81 71 188 44 97 103 230
131 296 29 67 57 121 62 121 5 0 23 -7 41 -17z m-1472 -84 c256 -85 544 -211
808 -352 226 -122 244 -134 237 -160 -11 -45 -244 -551 -255 -555 -6 -2 -33
14 -59 36 -69 58 -117 85 -217 125 -49 19 -144 61 -210 92 -66 31 -172 79
-235 105 -114 48 -412 150 -437 150 -20 0 -16 25 11 65 14 20 27 50 31 68 8
41 133 403 152 440 7 15 22 27 32 27 10 0 74 -18 142 -41z m-2781 -388 c0 -76
-29 -471 -35 -481 -3 -4 -49 -35 -102 -68 -168 -103 -355 -251 -535 -422 -170
-163 -496 -450 -509 -450 -4 0 -10 53 -13 118 -4 64 -9 143 -12 175 l-5 59
253 257 c139 142 336 343 438 447 170 175 299 286 449 387 29 21 57 37 62 37
5 0 9 -26 9 -59z m1688 -120 c59 -49 131 -85 213 -106 91 -24 303 -17 375 12
40 17 59 19 95 13 139 -27 682 -234 704 -269 3 -6 -9 -12 -27 -15 -189 -27
-262 -54 -336 -121 -62 -56 -86 -113 -79 -191 4 -49 12 -75 36 -112 21 -32 27
-48 18 -50 -7 -1 -54 13 -103 31 -593 227 -1142 288 -1699 191 -245 -42 -528
-133 -778 -248 -62 -29 -79 -33 -83 -22 -8 20 25 482 36 511 12 30 65 64 205
131 384 182 802 279 1213 283 l163 1 47 -39z m-2990 -273 c4 -22 0 -23 -238
-58 -451 -67 -632 -91 -646 -86 -19 7 -18 32 2 40 9 3 143 24 297 46 155 22
341 48 412 59 150 22 169 22 173 -1z m12 -167 c22 -42 12 -72 -47 -135 -244
-258 -801 -762 -820 -742 -16 16 -42 749 -27 759 8 5 208 37 659 106 233 36
222 35 235 12z m1250 -36 c0 -85 -31 -469 -38 -477 -4 -4 -70 -45 -147 -91
-177 -105 -256 -162 -430 -307 -688 -575 -1491 -1089 -2174 -1392 -252 -112
-501 -204 -525 -195 -14 5 -20 30 -32 125 l-7 52 74 0 c121 0 209 35 302 119
30 28 62 66 70 84 23 47 35 56 202 142 400 207 737 422 1155 736 351 264 590
465 935 789 110 104 225 208 255 233 81 66 330 237 346 237 10 0 14 -15 14
-55z m-1226 -322 l6 -122 -31 -36 c-82 -93 -613 -536 -782 -653 -51 -34 -70
-43 -76 -33 -15 24 -22 233 -8 252 6 10 57 55 112 100 182 151 337 292 549
499 l210 205 7 -45 c3 -25 9 -100 13 -167z m10 -255 c3 -29 6 -71 6 -93 l0
-40 -110 0 c-60 0 -109 4 -107 8 3 10 190 176 198 177 3 0 9 -24 13 -52z
m-393 -366 c16 -41 66 -62 150 -62 42 0 78 -3 82 -6 7 -7 -157 -137 -333 -264
-190 -138 -387 -269 -394 -263 -3 3 -6 71 -6 149 l0 143 143 109 c78 60 185
144 237 186 92 75 95 77 103 54 5 -13 13 -33 18 -46z m-567 -34 c3 -7 7 -66
10 -130 l6 -118 -72 -53 c-40 -30 -138 -96 -218 -147 -677 -436 -1277 -662
-1822 -686 -190 -8 -206 -5 -150 36 66 47 80 97 41 139 -12 12 -19 24 -18 25
2 2 72 8 154 14 436 31 903 194 1405 490 216 127 475 304 613 419 32 26 46 29
51 11z m16 -364 l0 -47 -46 7 c-78 10 -82 19 -27 54 65 43 73 41 73 -14z
m-402 -249 c10 -53 72 -85 167 -85 36 0 65 -4 65 -9 0 -17 -508 -291 -539
-291 -6 0 -18 14 -28 30 -10 17 -37 40 -61 52 -39 18 -55 20 -135 15 -76 -5
-102 -11 -155 -38 -121 -62 -201 -162 -205 -256 -2 -44 -4 -47 -42 -60 -81
-29 -344 -92 -465 -112 -157 -25 -381 -34 -573 -23 -188 11 -185 9 -169 129 6
47 15 90 19 94 5 5 49 4 98 -1 527 -56 1203 128 1850 504 132 76 167 87 173
51z m-869 -687 c4 -13 14 -62 21 -110 10 -68 10 -90 1 -102 -16 -19 -201 -68
-391 -105 -230 -43 -381 -55 -609 -48 -211 7 -310 19 -323 39 -8 13 0 134 12
178 7 25 8 25 91 20 208 -12 491 -4 634 19 147 24 379 77 480 110 76 25 74 25
84 -1z m-1879 -233 c95 0 112 -3 180 -32 41 -17 131 -48 200 -68 69 -20 129
-40 133 -44 9 -9 -7 -175 -19 -206 -4 -9 -14 -13 -23 -11 -9 3 -29 8 -46 12
-122 27 -367 128 -488 200 -91 54 -107 71 -107 114 0 45 7 53 40 43 14 -4 72
-8 130 -8z m1918 -37 c17 -21 47 -227 35 -239 -25 -25 -362 -95 -597 -124
-155 -19 -495 -20 -647 -1 -147 19 -169 24 -169 45 0 51 23 188 33 197 9 9 38
9 117 -2 204 -26 515 -13 779 32 52 9 169 35 260 59 91 23 169 43 172 44 4 0
11 -5 17 -11z m-2041 -124 c49 -34 258 -134 348 -167 39 -14 110 -37 159 -51
50 -14 94 -30 99 -35 11 -11 -13 -248 -27 -266 -14 -19 -658 -27 -676 -9 -9 9
-9 36 -1 105 5 52 15 155 21 229 15 183 20 220 30 220 5 0 26 -12 47 -26z"/>
</g>
</svg>
